<svg xmlns="http://www.w3.org/2000/svg" width="19.008" height="19.008" viewBox="0 0 19.008 19.008">
    <defs>
        <clipPath id="l06bhg0sea">
            <path style="fill:none" d="M0 0h19.008v19.008H0z" />
        </clipPath>
    </defs>
    <g>
        <g style="clip-path:url(#l06bhg0sea)">
            <path
                d="M6.99.283h7.984a3.673 3.673 0 0 1 3.67 3.672v7.984a3.673 3.673 0 0 1-3.669 3.669H6.99a3.673 3.673 0 0 1-3.672-3.669V3.955A3.673 3.673 0 0 1 6.99.283zm7.984 13.781a2.127 2.127 0 0 0 2.124-2.124V3.955a2.127 2.127 0 0 0-2.124-2.127H6.99a2.127 2.127 0 0 0-2.127 2.127v7.984a2.127 2.127 0 0 0 2.127 2.125z" />
            <path
                d="M18.445 19.218H6.347a6.555 6.555 0 0 1-6.556-6.555V.563a.773.773 0 1 1 1.545 0v12.1a5.016 5.016 0 0 0 5.011 5.01h12.1a.773.773 0 1 1 0 1.545z" />
            <path
                d="M10.98 12.809a.772.772 0 0 1-.772-.772V3.854a.772.772 0 0 1 .772-.772.772.772 0 0 1 .773.772v8.183a.772.772 0 0 1-.773.772z" />
            <path
                d="M15.072 8.718H6.889a.772.772 0 0 1-.772-.773.772.772 0 0 1 .772-.772h8.183a.772.772 0 0 1 .772.772.772.772 0 0 1-.772.773z" />
        </g>
    </g>
</svg>
