<svg xmlns="http://www.w3.org/2000/svg" xmlns:xlink="http://www.w3.org/1999/xlink" width="244"
    height="244" viewBox="0 0 244 244">
    <defs>
        <linearGradient id="linear-gradient" x1="1.32" y1="0.131" x2="0.165" y2="1"
            gradientUnits="objectBoundingBox">
            <stop offset="0" stop-color="#0eedff" />
            <stop offset="1" stop-color="#ab74f9" />
        </linearGradient>
        <linearGradient id="linear-gradient-4" x1="1.079" y1="0.261" x2="0.072" y2="1.258"
            xlink:href="#linear-gradient" />
        <clipPath id="clip-path">
            <rect id="Rectangle_1" width="69.634" height="76.7" transform="translate(0 0)"
                fill="#fff" />
        </clipPath>
    </defs>
    <g id="Group_41" transform="translate(-65.5 -233)">
        <g id="Group_39" transform="translate(-12.128 -8.128)">
            <circle id="Ellipse_13" cx="122" cy="122" r="122" transform="translate(77.628 241.128)"
                opacity="0.05" fill="url(#linear-gradient)" />
            <circle id="Ellipse_12" cx="93.558" cy="93.558" r="93.558"
                transform="translate(106.07 269.57)" opacity="0.1" fill="url(#linear-gradient)" />
            <circle id="Ellipse_11" cx="63.245" cy="63.245" r="63.245"
                transform="translate(136.757 299.509)" opacity="0.2" fill="url(#linear-gradient)" />
            <circle id="Ellipse_10" cx="63.245" cy="63.245" r="63.245"
                transform="translate(136.757 299.509)" fill="url(#linear-gradient-4)" />
        </g>
        <g id="Group_40" transform="translate(152.683 316.648)">
            <g id="Group_1" transform="translate(0 0.002)" clip-path="url(#clip-path)">
                <path id="Path_1"
                    d="M82.347,348.488c-16.43-.21-30.054,11.233-31.9,26.959a38.808,38.808,0,0,0,2.469,17.665c.465,1.305,1.265,2.157,2.715,1.619,1.466-.545,1.44-1.726.938-2.993-.294-.742-.532-1.509-.753-2.276-1.611-5.613-2.3-11.294-.938-17.051,3-12.672,15.508-20.934,30.149-19.982a27.18,27.18,0,0,1,25.234,24.081c.553,5.25-2.3,8.964-7.265,9.461-4.663.466-8.4-2.773-8.824-7.831a11.333,11.333,0,0,0-3.2-7.312A12.52,12.52,0,0,0,76.842,368.4c-4.759,2.247-7.231,6.868-6.518,12.529C71.911,393.525,78.957,401.8,91,405.982c1.475.513,3.683,1.439,4.329-.63.56-1.792-1.649-2.479-3.156-2.969-10.608-3.448-17.93-12.794-18.08-23.146a7.748,7.748,0,0,1,7.981-8.122c4.744-.047,7.633,2.729,8.218,7.9a11.8,11.8,0,0,0,12.038,10.85,11.633,11.633,0,0,0,11.833-10.5,23.2,23.2,0,0,0-.536-6.426c-2.948-14.287-15.75-24.251-31.277-24.449"
                    transform="translate(-47.562 -329.938)" fill="#fff" />
                <path id="Path_2"
                    d="M249.251,564.953c-5.6-6.2-8.772-13.335-8.675-21.762.1-9,6.905-16.071,16.449-17.037,9.079-.919,17.787,5.223,19.5,13.784A28.761,28.761,0,0,0,276.9,543a1.664,1.664,0,0,0,.56.686,1.933,1.933,0,0,0,2.95-.484,1.375,1.375,0,0,0,.159-.432,9.86,9.86,0,0,0-.252-3.56c-2.2-10.645-12.719-18.1-23.741-16.878a24.633,24.633,0,0,0-8.794,2.651,21.471,21.471,0,0,0-7.881,7.11,20.752,20.752,0,0,0-3.38,11.508q0,.242.006.484a37.9,37.9,0,0,0,1.811,9.872,33.913,33.913,0,0,0,9.926,15.384,2.753,2.753,0,0,0,2.872.372c1.3-.823.781-2.057-.2-3.031-.572-.566-1.139-1.138-1.677-1.735"
                    transform="translate(-223.929 -494.412)" fill="#fff" />
                <path id="Path_3"
                    d="M69.332,191.647c-.295-.456-.569-.872-.874-1.266Q67.3,188.889,66,187.509a40.02,40.02,0,0,0-6.431-5.522,41.617,41.617,0,0,0-7.3-4.014,43.742,43.742,0,0,0-7.9-2.507,45.537,45.537,0,0,0-16.491-.495,44.374,44.374,0,0,0-8.036,2.012,42.29,42.29,0,0,0-7.528,3.518,40.372,40.372,0,0,0-6.743,5.023A39.659,39.659,0,0,0,2.576,188.6a15.125,15.125,0,0,0-2.324,3.039c-.668,1.37.008,3.3,1.864,2.828a3.511,3.511,0,0,0,1.761-1.291,40.778,40.778,0,0,1,7.823-7.595,38.273,38.273,0,0,1,7.416-4.163,39.711,39.711,0,0,1,8.055-2.437,40.761,40.761,0,0,1,16.7.309,39.538,39.538,0,0,1,7.976,2.748,37.847,37.847,0,0,1,13.52,10.653,9.007,9.007,0,0,0,1.252,1.436,2.287,2.287,0,0,0,2.031.185,1.413,1.413,0,0,0,.542-.426,1.877,1.877,0,0,0,.145-2.238"
                    transform="translate(0 -165.161)" fill="#fff" />
                <path id="Path_4"
                    d="M196.633,8.886q20.868-10.253,41.8-.1c1.244.606,2.552,1.158,3.384-.333.894-1.6-.253-2.464-1.615-3.131-.885-.434-1.78-.851-2.684-1.245A49.392,49.392,0,0,0,216.039.036a50.829,50.829,0,0,0-21.178,5.394c-1.326.68-2.2,1.593-1.4,3.03.75,1.348,1.962,1.019,3.17.425"
                    transform="translate(-182.877 -0.002)" fill="#fff" />
                <path id="Path_5"
                    d="M638.989,896.044a2.478,2.478,0,0,0-.5-.186,10.539,10.539,0,0,0-2.886.152c-9.915.54-17.32-5.688-18.338-15.45-.151-1.444-.376-2.917-2.241-2.739-1.7.162-1.717,1.6-1.662,2.948.438,10.693,9.651,19.048,21.737,19.131.049,0,.1,0,.147,0a13.246,13.246,0,0,0,3.611-.388,1.743,1.743,0,0,0,.685-.472,1.881,1.881,0,0,0-.548-2.991"
                    transform="translate(-580.701 -831.088)" fill="#fff" />
            </g>
        </g>
    </g>
</svg>
