<svg id="Icon_ionic-ios-timer" data-name="Icon ionic-ios-timer" xmlns="http://www.w3.org/2000/svg"
    width="28.118" height="28.125" viewBox="0 0 28.118 28.125">
    <path id="Path_6"
        d="M17.993,32.063A14.063,14.063,0,0,0,27.752,7.875,1.129,1.129,0,1,0,26.184,9.5a11.8,11.8,0,1,1-9.316-3.248v4.4a1.132,1.132,0,1,0,2.264,0V5.07A1.131,1.131,0,0,0,18,3.938a14.063,14.063,0,0,0-.007,28.125Z"
        transform="translate(-3.938 -3.938)" fill="#ab74f9" />
    <path id="Path_7"
        d="M19.135,11.384l-7,5.027A2.117,2.117,0,1,0,14.6,19.856a2.044,2.044,0,0,0,.492-.492l5.027-7a.705.705,0,0,0-.984-.984Z"
        transform="translate(31.496 -1.478) rotate(88)" fill="#ab74f9" />
</svg>
