<svg xmlns="http://www.w3.org/2000/svg" width="17.774" height="19.749" viewBox="0 0 17.774 19.749">
    <path id="Icon_material-date-range"
        d="M10.425,11.887H8.45v1.975h1.975Zm3.95,0H12.4v1.975h1.975Zm3.95,0H16.349v1.975h1.975ZM20.3,4.975h-.987V3H17.337V4.975h-7.9V3H7.462V4.975H6.475A1.966,1.966,0,0,0,4.51,6.95L4.5,20.774a1.974,1.974,0,0,0,1.975,1.975H20.3a1.981,1.981,0,0,0,1.975-1.975V6.95A1.981,1.981,0,0,0,20.3,4.975Zm0,15.8H6.475V9.912H20.3Z"
        transform="translate(-4.5 -3)" fill="#0995f5" />
</svg>
