<svg xmlns="http://www.w3.org/2000/svg" width="17.774" height="22.957" viewBox="0 0 17.774 22.957">
    <path id="Union_1"
        d="M-1297.962,22.624l-7.668-7.652a1.271,1.271,0,0,1-.37-.9,1.273,1.273,0,0,1,.37-.9,1.265,1.265,0,0,1,1.794,0l6.726,6.721,6.721-6.725a1.264,1.264,0,0,1,1.794,0,1.28,1.28,0,0,1,0,1.8l-7.615,7.62a1.259,1.259,0,0,1-.894.37A1.27,1.27,0,0,1-1297.962,22.624Zm-7.669-12.835a1.28,1.28,0,0,1,0-1.8l7.615-7.62a1.268,1.268,0,0,1,1.752-.037l7.668,7.651a1.272,1.272,0,0,1,.371.9,1.272,1.272,0,0,1-.371.9,1.265,1.265,0,0,1-1.794,0l-6.726-6.721-6.721,6.725a1.267,1.267,0,0,1-.9.373A1.253,1.253,0,0,1-1305.631,9.789Z"
        transform="translate(1306 0)" fill="#0995f5" />
</svg>
