<svg xmlns="http://www.w3.org/2000/svg" width="32.248" height="35.52" viewBox="0 0 32.248 35.52">
    <defs>
        <clipPath id="neengh6l2a">
            <path  style="fill:#fff" d="M0 0h32.248v35.52H0z"/>
        </clipPath>
    </defs>
    <g >
        <g  style="clip-path:url(#neengh6l2a)">
            <path  d="M65.106 348.486a14.347 14.347 0 0 0-14.773 12.484 17.972 17.972 0 0 0 1.143 8.181c.215.6.586 1 1.257.75s.667-.8.434-1.386c-.136-.344-.246-.7-.349-1.054a15.368 15.368 0 0 1-.434-7.9c1.391-5.868 7.182-9.695 13.962-9.254a12.587 12.587 0 0 1 11.686 11.152c.256 2.431-1.065 4.151-3.364 4.381a3.694 3.694 0 0 1-4.086-3.626 5.249 5.249 0 0 0-1.482-3.386 5.8 5.8 0 0 0-6.544-1.123 5.344 5.344 0 0 0-3.018 5.8c.735 5.833 4 9.664 9.574 11.6.683.237 1.705.666 2-.292.259-.83-.764-1.148-1.461-1.375a11.739 11.739 0 0 1-8.373-10.719 3.588 3.588 0 0 1 3.7-3.761c2.2-.022 3.535 1.264 3.806 3.656a5.463 5.463 0 0 0 5.575 5.025 5.387 5.387 0 0 0 5.48-4.861 10.743 10.743 0 0 0-.248-2.976c-1.365-6.617-7.294-11.231-14.484-11.322" transform="translate(-48.997 -339.896)" style="fill:#fff"/>
            <path  d="M242.414 542a14.389 14.389 0 0 1-4.017-10.078 8.069 8.069 0 0 1 7.617-7.89 8.376 8.376 0 0 1 9.028 6.384 13.316 13.316 0 0 0 .174 1.419.77.77 0 0 0 .259.318.9.9 0 0 0 1.366-.224.637.637 0 0 0 .073-.2 4.567 4.567 0 0 0-.117-1.648 10.142 10.142 0 0 0-10.994-7.816 11.408 11.408 0 0 0-4.073 1.228 9.943 9.943 0 0 0-3.65 3.293 9.61 9.61 0 0 0-1.565 5.329v.224a17.551 17.551 0 0 0 .839 4.572 15.705 15.705 0 0 0 4.6 7.125 1.275 1.275 0 0 0 1.33.172c.6-.381.361-.953-.094-1.4a22.505 22.505 0 0 1-.777-.8" transform="translate(-230.687 -509.334)" style="fill:#fff"/>
            <path  d="M32.108 182.412c-.136-.211-.264-.4-.4-.586q-.536-.691-1.137-1.33a18.533 18.533 0 0 0-2.978-2.557 19.274 19.274 0 0 0-3.383-1.859 20.256 20.256 0 0 0-3.66-1.161 21.088 21.088 0 0 0-7.637-.229 20.549 20.549 0 0 0-3.722.932A19.585 19.585 0 0 0 5.7 177.25a18.7 18.7 0 0 0-3.123 2.326A18.368 18.368 0 0 0 1.193 181a7 7 0 0 0-1.076 1.407c-.309.634 0 1.53.863 1.31a1.626 1.626 0 0 0 .815-.6 18.884 18.884 0 0 1 3.623-3.517 17.725 17.725 0 0 1 3.434-1.928 18.391 18.391 0 0 1 3.73-1.129 18.877 18.877 0 0 1 7.732.143 18.31 18.31 0 0 1 3.694 1.272 17.527 17.527 0 0 1 6.261 4.933 4.172 4.172 0 0 0 .58.665 1.059 1.059 0 0 0 .94.086.654.654 0 0 0 .251-.2.869.869 0 0 0 .067-1.036" transform="translate(0 -170.146)" style="fill:#fff"/>
            <path  d="M194.767 4.116a20.972 20.972 0 0 1 19.357-.046c.576.281 1.182.536 1.567-.154.414-.742-.117-1.141-.748-1.45-.41-.2-.824-.394-1.243-.577a22.873 22.873 0 0 0-9.946-1.871 23.539 23.539 0 0 0-9.808 2.5c-.614.315-1.018.738-.647 1.4.347.624.909.472 1.468.2" transform="translate(-188.396 -.002)" style="fill:#fff"/>
            <path  d="M625.22 886.252a1.143 1.143 0 0 0-.234-.086 4.881 4.881 0 0 0-1.336.07 7.7 7.7 0 0 1-8.493-7.155c-.07-.669-.174-1.351-1.038-1.269-.787.075-.8.739-.77 1.365.2 4.952 4.469 8.821 10.066 8.859h.068a6.131 6.131 0 0 0 1.672-.18.807.807 0 0 0 .317-.219.871.871 0 0 0-.254-1.385" transform="translate(-598.227 -856.171)" style="fill:#fff"/>
        </g>
    </g>
</svg>
