<svg xmlns="http://www.w3.org/2000/svg" width="35.132" height="12.854" viewBox="0 0 35.132 12.854">
    <defs>
        <clipPath id="kmy2pqcpda">
            <path style="fill:none" d="M0 0h35.132v12.854H0z" />
        </clipPath>
    </defs>
    <g>
        <path d="M55.036 59.637v2.655h1.3v-.3h-.956v-.92h.908v-.291h-.908v-.841h.953v-.3z"
            transform="translate(-45.623 -49.437)" style="fill:#4949d4" />
        <g>
            <g style="clip-path:url(#kmy2pqcpda)">
                <path
                    d="m95.821 62.214-.826-1.188h-.045v1.188h-.344V59.56c.172-.012.355-.016.632-.016.5 0 .856.185.856.692a.744.744 0 0 1-.74.747c.075.094.153.2.217.283l.688.948zm-.643-2.375c-.086 0-.161 0-.228.008v.9c.037 0 .112.008.213.008.362 0 .572-.193.572-.476 0-.319-.191-.445-.557-.445"
                    transform="translate(-78.426 -49.36)" style="fill:#4949d4" />
                <path
                    d="M136.128 61.219c-.123 0-.232-.012-.232-.012v1.007h-.344V59.56s.333-.016.632-.016c.583 0 .9.3.9.775a.873.873 0 0 1-.957.9m.019-1.376c-.135 0-.251.008-.251.008V60.9a1.511 1.511 0 0 0 .262.024.511.511 0 0 0 .572-.554c0-.338-.187-.523-.583-.523"
                    transform="translate(-112.369 -49.36)" style="fill:#4949d4" />
                <path
                    d="M5.248 10.538c-1.057-.014-1.055 1.786 0 1.763 1.057.014 1.055-1.786 0-1.763" />
                <path
                    d="M3.204 10.538c-1.057-.014-1.055 1.786 0 1.763 1.075.015 1.073-1.787 0-1.763" />
                <path
                    d="M22.264 3.215a3.066 3.066 0 0 0-2.512 5 32.782 32.782 0 0 0-3.915-.091h-4.975c.344-4.863-1.074-5.376-5.319-4.667v4.667c-3.824.362-4.526-1.812-3.472-4.822l-1.736.3c-1.407 5.282 1.759 6.184 6.772 5.872V4.641c1.085-.237 2.323-.084 2.179 1.62v3.213h15.761c-.07-2.263.714-6.438-2.782-6.261m1.194 4.913h-.936c-2.334.34-2.469-3.544-.382-3.565 1.577-.165 1.319 2.38 1.317 3.565" />
                <path d="M22.105 2.242a.9.9 0 0 0 0-1.789c-1.1-.017-1.1 1.815 0 1.789" />
                <path
                    d="m35.132 0-4.876 3.215v1.257a3.541 3.541 0 0 1 3.017 3.656h-4.7V.337h-1.625v9.138h7.917c.232-2.751-.824-5.169-2.733-5.872l3-1.905z" />
            </g>
        </g>
    </g>
</svg>
