<svg xmlns="http://www.w3.org/2000/svg" viewBox="0 0 131.99 138.92"><defs><style>.cls-1{fill:#4949d4;}.cls-2{fill:#0995f5;}</style></defs><g id="Layer_2" data-name="Layer 2"><g id="Layer_1-2" data-name="Layer 1"><path class="cls-1" d="M101.35,82.22h-65a4,4,0,0,1-4-3.39,39.88,39.88,0,0,1-.28-10.56,4,4,0,0,1,3.76-3.43l10.23-.51.22,0c27.38-2.74,56.24-24.16,60.19-27.12,4.93-3.7,5.81-9,2.23-14.09s-10.26-5-15.2-1.3c-9.35,7-31.24,21.49-49.21,23.34L27.06,46.52a13.34,13.34,0,0,0-11.71,9.34,58.31,58.31,0,0,0,.5,37.31A11.44,11.44,0,0,0,26.7,101H98.29a4,4,0,0,1,4,3.62c.18,1.81.3,3.76.29,5a36.9,36.9,0,0,1-.59,5.8A4,4,0,0,1,98,118.67H27.25a10.12,10.12,0,0,0,0,20.24h69.2c2.35,0,10,.54,16.36-4.69,4.57-3.78,6.24-8.68,7.4-12.1A46.88,46.88,0,0,0,122,109.7c0-7-1.39-15.2-6.65-21.23A20.88,20.88,0,0,0,101.35,82.22Z"/><circle class="cls-2" cx="10.09" cy="128.81" r="10.09"/><path class="cls-2" d="M118.8,31.87a3.25,3.25,0,0,1-.69-.08,3,3,0,0,1-2.23-3.62c2.39-10-6.56-12.77-7.59-13.05a3,3,0,0,1,1.52-5.8c5.45,1.42,15,7.47,11.91,20.24A3,3,0,0,1,118.8,31.87Z"/><path class="cls-2" d="M129,29.93a3,3,0,0,1-3-3c0-17.5-12.49-20.88-13-21A3,3,0,0,1,114.39.08c.18.05,17.6,4.49,17.6,26.85A3,3,0,0,1,129,29.93Z"/></g></g></svg>