<svg xmlns="http://www.w3.org/2000/svg" width="16.536" height="19.543" viewBox="0 0 16.536 19.543">
    <path
        d="M8.315 3.405a6.791 6.791 0 0 1 1.123.21 4.788 4.788 0 0 1 3.649 4.691v5.995l.438.44.366.368H2.645l.366-.368.438-.44V8.306a4.788 4.788 0 0 1 3.649-4.691 8.316 8.316 0 0 1 1.123-.21m.047-3.4a1.436 1.436 0 0 0-1.459 1.466v.684a6.333 6.333 0 0 0-4.864 6.151v5.374L0 15.634v.977h16.536v-.977l-1.945-1.954V8.306A6.333 6.333 0 0 0 9.727 2.15v-.684A1.436 1.436 0 0 0 8.268 0zm1.945 17.589h-3.89a1.945 1.945 0 1 0 3.891 0z" />
</svg>
