<svg xmlns="http://www.w3.org/2000/svg" width="18.977" height="15.482" viewBox="0 0 18.977 15.482">
    <path
        d="M12.711 5.411a.75.75 0 0 1-.75-.75V3.107A2.4 2.4 0 0 0 9.533.75H3.178A2.4 2.4 0 0 0 .75 3.107v1.554a.75.75 0 0 1-.75.75.75.75 0 0 1-.75-.75V3.107A3.9 3.9 0 0 1 3.178-.75h6.355a3.9 3.9 0 0 1 3.928 3.857v1.554a.75.75 0 0 1-.75.75z"
        transform="translate(.75 10.071)" style="fill:#140f26" />
    <path
        d="M3.178-.75a3.9 3.9 0 0 1 3.927 3.857 3.9 3.9 0 0 1-3.927 3.857A3.9 3.9 0 0 1-.75 3.107 3.9 3.9 0 0 1 3.178-.75zm0 6.214a2.4 2.4 0 0 0 2.427-2.357A2.4 2.4 0 0 0 3.178.75 2.4 2.4 0 0 0 .75 3.107a2.4 2.4 0 0 0 2.428 2.357z"
        transform="translate(3.928 .75)" style="fill:#140f26" />
    <path
        d="M2.383 5.31a.75.75 0 0 1-.75-.75V3.006A2.371 2.371 0 0 0-.184.727a.75.75 0 0 1-.543-.911.75.75 0 0 1 .911-.543 3.87 3.87 0 0 1 2.95 3.733V4.56a.75.75 0 0 1-.751.75z"
        transform="translate(15.844 10.172)" style="fill:#140f26" />
    <path
        d="M0 6.77a.75.75 0 0 1-.728-.57.75.75 0 0 1 .545-.91A2.37 2.37 0 0 0 1.64 3.01 2.37 2.37 0 0 0-.182.728a.75.75 0 0 1-.545-.91.75.75 0 0 1 .91-.545A3.868 3.868 0 0 1 3.14 3.01 3.868 3.868 0 0 1 .182 6.748.752.752 0 0 1 0 6.77z"
        transform="translate(12.666 .851)" style="fill:#140f26" />
</svg>
