<svg width="120" height="120" viewBox="0 0 120 120" fill="none" xmlns="http://www.w3.org/2000/svg">
<circle cx="60" cy="60" r="60" fill="#40AA54" fill-opacity="0.1"/>
<path d="M48.4257 72.6H78.7662C81.3117 72.6 83.5206 70.918 84.1361 68.5172L90.9429 42.4442C91.0836 41.9058 90.9611 41.3341 90.6115 40.8954C90.2617 40.4567 89.7239 40.2 89.1542 40.2H40.5648L39.4736 36.7909C38.7479 34.5234 36.6237 33 34.1881 33H29.8457C28.8264 33 28 33.8059 28 34.8C28 35.7941 28.8263 36.6 29.8457 36.6H34.1881C35 36.6 35.708 37.1078 35.9499 37.8636C36.4997 39.5812 45.4902 67.6691 46.0795 69.5102C44.1963 70.3733 42.8886 72.2401 42.8886 74.4C42.8886 77.3776 45.3726 79.7988 48.4257 79.7988H50.5889C50.384 80.3622 50.2714 80.969 50.2714 81.6C50.2714 84.5776 52.7554 87 55.8085 87C58.8617 87 61.3456 84.5776 61.3456 81.6C61.3456 80.969 61.2331 80.3634 61.0282 79.7988H69.046C68.8411 80.3634 68.7286 80.969 68.7286 81.6C68.7286 84.5776 71.2125 87 74.2657 87C77.3188 87 79.8028 84.5776 79.8028 81.6C79.8028 80.969 79.6902 80.3634 79.4853 79.8H81.6483C82.6677 79.8 83.494 78.9941 83.494 78C83.494 77.0059 82.6677 76.2 81.6483 76.2H48.4257C47.408 76.2 46.58 75.3925 46.58 74.4C46.58 73.4075 47.408 72.6 48.4257 72.6ZM57.6542 81.6C57.6542 82.5925 56.8263 83.4 55.8085 83.4C54.7908 83.4 53.9628 82.5925 53.9628 81.6C53.9628 80.6075 54.7908 79.8 55.8085 79.8C56.8263 79.8 57.6542 80.6075 57.6542 81.6ZM76.1112 81.6C76.1112 82.5925 75.2833 83.4 74.2655 83.4C73.2478 83.4 72.4198 82.5925 72.4198 81.6C72.4198 80.6075 73.2478 79.8 74.2655 79.8C75.2833 79.8 76.1112 80.6075 76.1112 81.6ZM70.329 58.2L68.9448 69H61.1293L59.7451 58.2H70.329ZM59.2836 54.6L57.8994 43.8H72.1747L70.7905 54.6H59.2836ZM57.4091 69H49.7831L46.3262 58.2H56.0249L57.4091 69ZM80.5568 67.6366C80.3511 68.4394 79.6146 69 78.7662 69H72.6649L74.0492 58.2H83.0203L80.5568 67.6366ZM83.9601 54.6H74.5105L75.8948 43.8H86.7796L83.9601 54.6ZM54.1792 43.8L55.5634 54.6H45.1739L41.717 43.8H54.1792Z" fill="#40AA54"/>
</svg>
