<svg width="32" height="32" viewBox="0 0 32 32" fill="none" xmlns="http://www.w3.org/2000/svg">
<path opacity="0.4" fill-rule="evenodd" clip-rule="evenodd" d="M23.349 11.3308C22.8664 11.453 22.3392 11.5208 21.7865 11.5208C19.4853 11.5208 17.6198 10.3549 17.6198 8.91667C17.6198 7.47844 19.4853 6.3125 21.7865 6.3125C22.3392 6.3125 22.8664 6.38036 23.349 6.5025C21.8222 6.88891 20.7448 7.82385 20.7448 8.91667C20.7448 10.0095 21.8222 10.9444 23.349 11.3308ZM8.24484 17.3542C8.24484 16.2614 9.32229 15.3264 10.849 14.94C10.3664 14.8179 9.83927 14.75 9.28651 14.75C6.98531 14.75 5.11984 15.9159 5.11984 17.3542C5.11984 18.7924 6.98531 19.9583 9.28651 19.9583C9.83927 19.9583 10.3664 19.8905 10.849 19.7683C9.32224 19.3819 8.24484 18.4469 8.24484 17.3542Z" fill="#F5B544"/>
<path fill-rule="evenodd" clip-rule="evenodd" d="M21.7865 12.5625C18.8659 12.5625 16.5782 10.961 16.5782 8.91666C16.5782 6.87229 18.8659 5.27083 21.7865 5.27083C24.7071 5.27083 26.9948 6.87229 26.9948 8.91666C26.9948 10.961 24.7071 12.5625 21.7865 12.5625ZM21.7865 7.35416C20.8795 7.35416 20.0069 7.57442 19.3923 7.95854C18.9279 8.2488 18.6615 8.59802 18.6615 8.91666C18.6615 9.23531 18.9279 9.58447 19.3923 9.87479C20.0069 10.2589 20.8795 10.4792 21.7865 10.4792C22.6935 10.4792 23.5661 10.2589 24.1807 9.87479C24.6452 9.58453 24.9115 9.23531 24.9115 8.91666C24.9115 8.59802 24.6452 8.24885 24.1807 7.95854C23.5661 7.57442 22.6935 7.35416 21.7865 7.35416ZM26.5121 27.8853C26.978 27.5479 27.0821 26.8966 26.7447 26.4307C26.4073 25.9647 25.756 25.8606 25.2901 26.1981C23.3627 27.594 20.1061 27.594 18.1788 26.1981C17.7129 25.8606 17.0616 25.9647 16.7241 26.4307C16.3866 26.8966 16.4908 27.5479 16.9567 27.8853C18.246 28.8191 19.9427 29.3333 21.7344 29.3333C23.5261 29.3333 25.2228 28.8191 26.5121 27.8853ZM26.5121 23.7186C26.978 23.3812 27.0821 22.7299 26.7447 22.264C26.4073 21.7981 25.756 21.6939 25.2901 22.0314C23.3627 23.4273 20.1061 23.4273 18.1788 22.0314C17.7129 21.694 17.0616 21.7981 16.7241 22.264C16.3866 22.7299 16.4908 23.3812 16.9567 23.7186C18.246 24.6524 19.9427 25.1667 21.7344 25.1667C23.5261 25.1667 25.2228 24.6524 26.5121 23.7186ZM26.5121 19.4999C26.978 19.1624 27.0821 18.5112 26.7447 18.0453C26.4073 17.5793 25.756 17.4752 25.2901 17.8127C23.3627 19.2086 20.1061 19.2086 18.1788 17.8127C17.7129 17.4752 17.0616 17.5793 16.7241 18.0453C16.3866 18.5112 16.4908 19.1624 16.9567 19.4999C18.246 20.4336 19.9427 20.9479 21.7344 20.9479C23.5261 20.9479 25.2228 20.4336 26.5121 19.4999ZM26.5121 15.2811C26.978 14.9437 27.0821 14.2924 26.7447 13.8265C26.4073 13.3606 25.756 13.2564 25.2901 13.5939C23.3627 14.9898 20.1061 14.9898 18.1788 13.5939C17.7129 13.2565 17.0616 13.3606 16.7241 13.8265C16.3866 14.2924 16.4908 14.9437 16.9567 15.2811C18.246 16.2149 19.9427 16.7292 21.7344 16.7292C23.5261 16.7292 25.2228 16.2149 26.5121 15.2811ZM9.28651 21C6.36594 21 4.07818 19.3985 4.07818 17.3542C4.07818 15.3098 6.36594 13.7083 9.28651 13.7083C12.2071 13.7083 14.4948 15.3098 14.4948 17.3542C14.4948 19.3985 12.2071 21 9.28651 21ZM9.28651 15.7917C8.37953 15.7917 7.50688 16.0119 6.89229 16.396C6.42787 16.6863 6.16151 17.0355 6.16151 17.3542C6.16151 17.6728 6.42787 18.022 6.89229 18.3123C7.50688 18.6964 8.37953 18.9167 9.28651 18.9167C10.1935 18.9167 11.0661 18.6964 11.6807 18.3123C12.1452 18.022 12.4115 17.6728 12.4115 17.3542C12.4115 17.0355 12.1452 16.6863 11.6807 16.396C11.0661 16.0119 10.1935 15.7917 9.28651 15.7917ZM14.0121 27.8853C14.478 27.5479 14.5821 26.8966 14.2447 26.4307C13.9073 25.9647 13.256 25.8606 12.7901 26.1981C10.8627 27.594 7.60615 27.594 5.67875 26.1981C5.21287 25.8606 4.56162 25.9647 4.22406 26.4307C3.88662 26.8966 3.99078 27.5479 4.45672 27.8853C5.74599 28.8191 7.44271 29.3333 9.23443 29.3333C11.0261 29.3333 12.7228 28.8191 14.0121 27.8853ZM14.0121 23.7186C14.478 23.3812 14.5821 22.7299 14.2447 22.264C13.9073 21.7981 13.256 21.6939 12.7901 22.0314C10.8627 23.4273 7.60615 23.4273 5.67875 22.0314C5.21287 21.694 4.56162 21.7981 4.22406 22.264C3.88662 22.7299 3.99078 23.3812 4.45672 23.7186C5.74599 24.6524 7.44271 25.1667 9.23443 25.1667C11.0261 25.1667 12.7228 24.6524 14.0121 23.7186Z" fill="#F5B544"/>
<path fill-rule="evenodd" clip-rule="evenodd" d="M5.84896 7.45834C5.58594 7.45834 5.32281 7.35938 5.12016 7.16084C4.70912 6.75829 4.70229 6.09876 5.10484 5.68777L7.1601 3.58938C7.16224 3.58719 7.16443 3.58501 7.16656 3.58282C7.75552 2.99209 8.53896 2.66667 9.37234 2.66667C10.2057 2.66667 10.9891 2.99209 11.5781 3.58287L13.6701 5.68126C14.0762 6.0887 14.0752 6.74823 13.6678 7.15438C13.2605 7.56047 12.6008 7.55959 12.1946 7.15214L10.1027 5.05376C9.9074 4.85787 9.64802 4.75001 9.37234 4.75001C9.09781 4.75001 8.83953 4.85688 8.64453 5.0511L6.59318 7.14558C6.38917 7.35386 6.11912 7.45834 5.84896 7.45834ZM10.3282 11.1042V7.82292C10.3282 7.24761 9.86182 6.78126 9.28651 6.78126C8.7112 6.78126 8.24484 7.24761 8.24484 7.82292V11.1042C8.24484 11.6795 8.7112 12.1458 9.28651 12.1458C9.86182 12.1458 10.3282 11.6795 10.3282 11.1042Z" fill="#2772F0"/>
</svg>
