<svg xmlns="http://www.w3.org/2000/svg" width="19.103" height="20.6" viewBox="0 0 19.103 20.6">
  <g id="cog" transform="translate(-2.449 -1.7)" fill="#4e2f88">
    <path d="M 12.77919960021973 22.14999961853027 L 11.22080039978027 22.14999961853027 C 10.50942039489746 22.14999961853027 9.880339622497559 21.69658088684082 9.655429840087891 21.02173042297363 L 9.200240135192871 19.65612983703613 C 8.314200401306152 19.33218955993652 7.4978928565979 18.86030006408691 6.771751880645752 18.25224304199219 L 5.359200000762939 18.54134941101074 C 5.25029993057251 18.56362915039062 5.138919830322266 18.57493019104004 5.028130054473877 18.57493019104004 C 4.440730094909668 18.57496070861816 3.89330005645752 18.2587890625 3.599459886550903 17.74979019165039 L 2.820230007171631 16.40019989013672 C 2.464550018310547 15.78409957885742 2.542680025100708 15.012619972229 3.014640092849731 14.48046970367432 L 3.970360040664673 13.40261650085449 C 3.890470027923584 12.94213485717773 3.849999904632568 12.47068309783936 3.849999904632568 12 C 3.849999904632568 11.52934741973877 3.890479803085327 11.05783843994141 3.970359563827515 10.59738540649414 L 3.014630079269409 9.519570350646973 C 2.542680025100708 8.987350463867188 2.464560031890869 8.215869903564453 2.820230007171631 7.59984016418457 L 3.599469900131226 6.250160217285156 C 3.89330005645752 5.741219997406006 4.440710067749023 5.425059795379639 5.028079986572266 5.425059795379639 C 5.138869762420654 5.425059795379639 5.250269889831543 5.436369895935059 5.359189987182617 5.458660125732422 L 6.771752834320068 5.747722148895264 C 7.497965812683105 5.139672756195068 8.314281463623047 4.667778491973877 9.200240135192871 4.343819618225098 L 9.655429840087891 2.978229999542236 C 9.880370140075684 2.303400039672852 10.50944042205811 1.850000023841858 11.22080039978027 1.850000023841858 L 12.77919960021973 1.850000023841858 C 13.49053955078125 1.850000023841858 14.11962985992432 2.303400039672852 14.34459972381592 2.978219985961914 L 14.79979991912842 4.343820571899414 C 15.68574810028076 4.667788982391357 16.50203323364258 5.13969087600708 17.22821807861328 5.747722148895264 L 18.64082908630371 5.458660125732422 C 18.74974060058594 5.436369895935059 18.86113929748535 5.425059795379639 18.9719295501709 5.425059795379639 C 19.55928993225098 5.425059795379639 20.106689453125 5.741219997406006 20.40051078796387 6.250160217285156 L 21.17980003356934 7.59984016418457 C 21.53544998168945 8.215889930725098 21.45729064941406 8.987369537353516 20.98533058166504 9.519570350646973 L 20.02961730957031 10.59737682342529 C 20.10951614379883 11.05768585205078 20.14999961853027 11.5291862487793 20.14999961853027 12 C 20.14999961853027 12.4708137512207 20.1095142364502 12.94231700897217 20.02961730957031 13.40262603759766 L 20.98533058166504 14.4804801940918 C 21.45730018615723 15.01259994506836 21.53545951843262 15.78407955169678 21.1798095703125 16.40019035339355 L 20.40049934387207 17.74980926513672 C 20.10671997070312 18.25873947143555 19.55929946899414 18.57490921020508 18.97188949584961 18.57493019104004 C 18.86113929748535 18.5749397277832 18.7497501373291 18.56364059448242 18.64082908630371 18.54136085510254 L 17.22821807861328 18.25224304199219 C 16.50209617614746 18.86028289794922 15.68581008911133 19.33217430114746 14.7997989654541 19.65613174438477 L 14.34459972381592 21.02173042297363 C 14.11964988708496 21.69658088684082 13.49057006835938 22.14999961853027 12.77919960021973 22.14999961853027 Z M 6.956550121307373 16.90102958679199 C 7.118569850921631 16.90102958679199 7.273819923400879 16.96104049682617 7.393710136413574 17.06999969482422 C 8.126959800720215 17.73667907714844 8.974570274353027 18.2266902923584 9.913009643554688 18.52640914916992 C 10.10991954803467 18.58935928344727 10.26650047302246 18.74398040771484 10.33189010620117 18.94004058837891 L 10.88869953155518 20.61067008972168 C 10.93644046783447 20.75381088256836 11.069899559021 20.85000038146973 11.22080039978027 20.85000038146973 L 12.77919960021973 20.85000038146973 C 12.930100440979 20.85000038146973 13.06355953216553 20.75381088256836 13.11130046844482 20.61063957214355 L 13.66810035705566 18.9400691986084 C 13.73349952697754 18.74398994445801 13.89006042480469 18.58937072753906 14.0869197845459 18.52643013000488 C 15.0254602432251 18.22666931152344 15.87308025360107 17.73666954040527 16.60629081726074 17.07002067565918 C 16.72612953186035 16.96105003356934 16.88138008117676 16.90102958679199 17.04344940185547 16.90102958679199 C 17.08713912963867 16.90102958679199 17.13101959228516 16.90547943115234 17.17387008666992 16.91423988342285 L 18.90147018432617 17.26774024963379 C 18.92457008361816 17.27247047424316 18.94819068908691 17.27486038208008 18.97166061401367 17.27486038208008 C 19.09623908996582 17.27486038208008 19.21236038208008 17.20779037475586 19.27469062805176 17.09980964660645 L 20.05389976501465 15.75020027160645 C 20.12940979003906 15.61950969696045 20.11284065246582 15.45584964752197 20.01268005371094 15.34292984008789 L 18.84396934509277 14.02492046356201 C 18.70704078674316 13.87049961090088 18.6513500213623 13.65791988372803 18.69499015808105 13.45627021789551 C 18.79784965515137 12.98118019104004 18.85000038146973 12.49122047424316 18.85000038146973 12 C 18.85000038146973 11.50877952575684 18.79784965515137 11.01881980895996 18.69499969482422 10.54374027252197 C 18.6513500213623 10.34208011627197 18.70704078674316 10.12950038909912 18.84396934509277 9.975079536437988 L 20.01267051696777 8.657059669494629 C 20.11281967163086 8.544130325317383 20.1294002532959 8.380499839782715 20.05392074584961 8.249890327453613 L 19.27469062805176 6.90015983581543 C 19.21236991882324 6.792190074920654 19.09627914428711 6.725130081176758 18.97172927856445 6.725130081176758 C 18.94824981689453 6.725130081176758 18.92461013793945 6.727530002593994 18.90147972106934 6.732260227203369 L 17.17387008666992 7.085790157318115 C 17.13102912902832 7.094550132751465 17.08717918395996 7.098989963531494 17.04352951049805 7.098989963531494 C 16.88142013549805 7.098989963531494 16.72612953186035 7.038949966430664 16.60626029968262 6.929910182952881 C 15.87308025360107 6.263370037078857 15.02544975280762 5.773369789123535 14.08695030212402 5.473549842834473 C 13.8900899887085 5.410639762878418 13.73351001739502 5.256030082702637 13.66810989379883 5.059959888458252 L 13.11130046844482 3.389319896697998 C 13.06355953216553 3.246190071105957 12.93008995056152 3.150000095367432 12.77919960021973 3.150000095367432 L 11.22080039978027 3.150000095367432 C 11.06991004943848 3.150000095367432 10.93644046783447 3.246190071105957 10.88868999481201 3.389349937438965 L 10.33189964294434 5.059919834136963 C 10.26648044586182 5.256030082702637 10.10990047454834 5.41064977645874 9.913020133972168 5.473549842834473 C 8.974579811096191 5.773349761962891 8.126970291137695 6.263350009918213 7.393720149993896 6.929940223693848 C 7.273819923400879 7.038949966430664 7.118539810180664 7.098989963531494 6.956470012664795 7.098989963531494 C 6.912819862365723 7.098989963531494 6.868989944458008 7.094550132751465 6.826179981231689 7.085800170898438 L 5.098569869995117 6.732260227203369 C 5.075419902801514 6.727530002593994 5.051780223846436 6.725130081176758 5.028289794921875 6.725130081176758 C 4.903729915618896 6.725130081176758 4.787630081176758 6.792200088500977 4.725289821624756 6.90015983581543 L 3.946049928665161 8.249839782714844 C 3.870609998703003 8.380510330200195 3.887180089950562 8.544159889221191 3.987289905548096 8.657059669494629 L 5.156010150909424 9.975079536437988 C 5.292940139770508 10.12944984436035 5.348629951477051 10.34204006195068 5.304979801177979 10.54372978210449 C 5.202139854431152 11.01895046234131 5.150000095367432 11.50891017913818 5.150000095367432 12 C 5.150000095367432 12.49108982086182 5.202139854431152 12.98104953765869 5.304979801177979 13.45627975463867 C 5.348629951477051 13.65795993804932 5.292940139770508 13.87055015563965 5.156000137329102 14.02493953704834 L 3.987289905548096 15.34292030334473 C 3.887160062789917 15.45582008361816 3.870589971542358 15.6194896697998 3.946059942245483 15.75020027160645 L 4.725289821624756 17.09980010986328 C 4.787630081176758 17.20779037475586 4.903759956359863 17.27486038208008 5.028369903564453 17.27486038208008 C 5.051839828491211 17.27486038208008 5.075469970703125 17.27247047424316 5.098599910736084 17.26774024963379 L 6.826169967651367 16.91423988342285 C 6.86899995803833 16.90547943115234 6.912869930267334 16.90102958679199 6.956550121307373 16.90102958679199 Z M 12 16.14999961853027 C 9.71168041229248 16.14999961853027 7.849999904632568 14.28831958770752 7.849999904632568 12 C 7.849999904632568 9.71168041229248 9.71168041229248 7.849999904632568 12 7.849999904632568 C 14.28831958770752 7.849999904632568 16.14999961853027 9.71168041229248 16.14999961853027 12 C 16.14999961853027 14.28831958770752 14.28831958770752 16.14999961853027 12 16.14999961853027 Z M 12 9.149999618530273 C 10.42850017547607 9.149999618530273 9.149999618530273 10.42850017547607 9.149999618530273 12 C 9.149999618530273 13.57149982452393 10.42850017547607 14.85000038146973 12 14.85000038146973 C 13.57149982452393 14.85000038146973 14.85000038146973 13.57149982452393 14.85000038146973 12 C 14.85000038146973 10.42850017547607 13.57149982452393 9.149999618530273 12 9.149999618530273 Z" stroke="none"/>
    <path d="M 11.22080039978027 2 C 10.57509994506836 2 10.00189971923828 2.413150787353516 9.797730445861816 3.025659561157227 L 9.319540023803711 4.460250854492188 C 8.401679992675781 4.786590576171875 7.552780151367188 5.278629302978516 6.812969207763672 5.909259796142578 L 5.329120635986328 5.605609893798828 C 4.696590423583984 5.476167678833008 4.052190780639648 5.766008377075195 3.7293701171875 6.325159072875977 L 2.950130462646484 7.674840927124023 C 2.627300262451172 8.233989715576172 2.698490142822266 8.936969757080078 3.126859664916992 9.420049667358398 L 4.130769729614258 10.55220031738281 C 4.04401969909668 11.02649974822998 4 11.51049995422363 4 12 C 4 12.48950004577637 4.04401969909668 12.97350025177002 4.130769729614258 13.44779968261719 L 3.126859664916992 14.57999992370605 C 2.698490142822266 15.0629997253418 2.627300262451172 15.76599979400635 2.950130462646484 16.32519912719727 L 3.7293701171875 17.67480087280273 C 4.052188873291016 18.23400115966797 4.69659423828125 18.5237979888916 5.329120635986328 18.39439964294434 L 6.812969207763672 18.09070014953613 C 7.552780151367188 18.72139930725098 8.401679992675781 19.21339988708496 9.319540023803711 19.53969955444336 L 9.797730445861816 20.97430038452148 C 10.00189971923828 21.58690071105957 10.57509994506836 22 11.22080039978027 22 L 12.77919960021973 22 C 13.42490005493164 22 13.99810028076172 21.58690071105957 14.20230007171631 20.97430038452148 L 14.68050003051758 19.53969955444336 C 15.59829998016357 19.21339988708496 16.44720077514648 18.72139930725098 17.1870002746582 18.09070014953613 L 18.67090034484863 18.39439964294434 C 19.30339813232422 18.52379989624023 19.94779968261719 18.23399925231934 20.27059936523438 17.67480087280273 L 21.04990005493164 16.32519912719727 C 21.37269973754883 15.76599979400635 21.30150032043457 15.0629997253418 20.87310028076172 14.57999992370605 L 19.86919975280762 13.44779968261719 C 19.95599937438965 12.97350025177002 20 12.48950004577637 20 12 C 20 11.51049995422363 19.95599937438965 11.02649974822998 19.86919975280762 10.55220031738281 L 20.87310028076172 9.420049667358398 C 21.30150032043457 8.936969757080078 21.37269973754883 8.233989715576172 21.04990005493164 7.674840927124023 L 20.27059936523438 6.325159072875977 C 19.94779968261719 5.766010284423828 19.30339813232422 5.476160049438477 18.67090034484863 5.605609893798828 L 17.1870002746582 5.909259796142578 C 16.44720077514648 5.278629302978516 15.59829998016357 4.786590576171875 14.68050003051758 4.460250854492188 L 14.20230007171631 3.025659561157227 C 13.99810028076172 2.413150787353516 13.42490005493164 2 12.77919960021973 2 L 11.22080039978027 2 M 17.04352760314941 6.948993682861328 C 17.07688522338867 6.948993682861328 17.1104850769043 6.945652008056641 17.143798828125 6.938840866088867 L 18.87139892578125 6.585309982299805 C 19.08220100402832 6.542156219482422 19.29700088500977 6.638778686523438 19.40460014343262 6.825159072875977 L 20.18379974365234 8.174839973449707 C 20.29150009155273 8.361220359802246 20.2677001953125 8.595549583435059 20.12490081787109 8.756580352783203 L 18.95619964599609 10.07460021972656 C 18.85050010681152 10.19379997253418 18.80789947509766 10.35630035400391 18.84160041809082 10.51200008392334 C 18.94659996032715 10.99699974060059 19 11.49489974975586 19 12 C 19 12.50510025024414 18.94659996032715 13.00300025939941 18.84160041809082 13.48799991607666 C 18.80789947509766 13.64369964599609 18.85050010681152 13.80620002746582 18.95619964599609 13.92539978027344 L 20.12490081787109 15.24339962005615 C 20.2677001953125 15.40439987182617 20.29150009155273 15.6387996673584 20.18379974365234 15.82520008087158 L 19.40460014343262 17.17480087280273 C 19.29700088500977 17.3612003326416 19.08220100402832 17.45779991149902 18.87139892578125 17.41469955444336 L 17.143798828125 17.06119918823242 C 16.98739814758301 17.02919769287109 16.82519912719727 17.07369995117188 16.70719909667969 17.18099975585938 C 15.96580028533936 17.85510063171387 15.08850002288818 18.36400032043457 14.13259983062744 18.6693000793457 C 13.98060035705566 18.71789932250977 13.86089992523193 18.83609962463379 13.81040000915527 18.98749923706055 L 13.25360012054443 20.65810012817383 C 13.1855001449585 20.86230087280273 12.99450016021729 21 12.77919960021973 21 L 11.22080039978027 21 C 11.00549983978271 21 10.8144998550415 20.86230087280273 10.74639987945557 20.65810012817383 L 10.18959999084473 18.98749923706055 C 10.13910007476807 18.83609962463379 10.01939964294434 18.71789932250977 9.867369651794434 18.6693000793457 C 8.911479949951172 18.36400032043457 8.03423023223877 17.85510063171387 7.292819976806641 17.18099975585938 C 7.174760818481445 17.07369995117188 7.012561798095703 17.02919769287109 6.856239318847656 17.06119918823242 L 5.128639221191406 17.41469955444336 C 4.917812347412109 17.45780181884766 4.703001022338867 17.3612003326416 4.595390319824219 17.17480087280273 L 3.816150665283203 15.82520008087158 C 3.708539962768555 15.6387996673584 3.732269287109375 15.40439987182617 3.875059127807617 15.24339962005615 L 5.043779373168945 13.92539978027344 C 5.149509429931641 13.80620002746582 5.192070007324219 13.64369964599609 5.158369064331055 13.48799991607666 C 5.05341911315918 13.00300025939941 5 12.50510025024414 5 12 C 5 11.49489974975586 5.05341911315918 10.99699974060059 5.158369064331055 10.51200008392334 C 5.192070007324219 10.35630035400391 5.149509429931641 10.19379997253418 5.043779373168945 10.07460021972656 L 3.875059127807617 8.756580352783203 C 3.732269287109375 8.595549583435059 3.708539962768555 8.361220359802246 3.816150665283203 8.174839973449707 L 4.595390319824219 6.825159072875977 C 4.703001022338867 6.63878059387207 4.917800903320312 6.54216194152832 5.128639221191406 6.585309982299805 L 6.856239318847656 6.938840866088867 C 7.012563705444336 6.970817565917969 7.174760818481445 6.926292419433594 7.292819976806641 6.818950653076172 C 8.03423023223877 6.144939422607422 8.911479949951172 5.636039733886719 9.867369651794434 5.330659866333008 C 10.01939964294434 5.282089233398438 10.13910007476807 5.16387939453125 10.18959999084473 5.012489318847656 L 10.74639987945557 3.341890335083008 C 10.8144998550415 3.137720108032227 11.00549983978271 3 11.22080039978027 3 L 12.77919960021973 3 C 12.99450016021729 3 13.1855001449585 3.137720108032227 13.25360012054443 3.341890335083008 L 13.81040000915527 5.012489318847656 C 13.86089992523193 5.16387939453125 13.98060035705566 5.282089233398438 14.13259983062744 5.330659866333008 C 15.08850002288818 5.636039733886719 15.96580028533936 6.144939422607422 16.70719909667969 6.818950653076172 C 16.80006408691406 6.903425216674805 16.92028427124023 6.948993682861328 17.04352760314941 6.948993682861328 M 12 8 C 9.790860176086426 8 8 9.790860176086426 8 12 C 8 14.20909976959229 9.790860176086426 16 12 16 C 14.20909976959229 16 16 14.20909976959229 16 12 C 16 9.790860176086426 14.20909976959229 8 12 8 M 12 15 C 10.34309959411621 15 9 13.65690040588379 9 12 C 9 10.34309959411621 10.34309959411621 9 12 9 C 13.65690040588379 9 15 10.34309959411621 15 12 C 15 13.65690040588379 13.65690040588379 15 12 15 M 11.22080039978027 1.700000762939453 L 12.77919960021973 1.700000762939453 C 13.55519962310791 1.700000762939453 14.24147987365723 2.194610595703125 14.48690032958984 2.930780410766602 L 14.91936016082764 4.228160858154297 C 15.7728967666626 4.54871940612793 16.56190872192383 5.004865646362305 17.26864624023438 5.586336135864258 L 18.61075973510742 5.311700820922852 C 18.7294807434082 5.287399291992188 18.85099029541016 5.275070190429688 18.97190093994141 5.275060653686523 C 19.6126708984375 5.275009155273438 20.2098503112793 5.619909286499023 20.53041076660156 6.1751708984375 L 21.30970001220703 7.524829864501953 C 21.69768905639648 8.196889877319336 21.61243057250977 9.038510322570801 21.09754943847656 9.619099617004395 L 20.18948554992676 10.64317321777344 C 20.26284980773926 11.08922386169434 20.29999923706055 11.544921875 20.29999923706055 12 C 20.29999923706055 12.455078125 20.26284980773926 12.91077899932861 20.18948364257812 13.35682964324951 L 21.09757041931152 14.3809700012207 C 21.61243057250977 14.96144962310791 21.69770050048828 15.80305957794189 21.30971908569336 16.47517967224121 L 20.53039932250977 17.82481956481934 C 20.20990943908691 18.3800106048584 19.61270904541016 18.72492980957031 18.97187995910645 18.72492980957031 C 18.85102081298828 18.72492980957031 18.72953033447266 18.71261024475098 18.61077117919922 18.68831062316895 L 17.26864624023438 18.41362953186035 C 16.56196594238281 18.99510955810547 15.77297782897949 19.45124053955078 14.91936779022217 19.77179718017578 L 14.48690986633301 21.06916999816895 C 14.24151039123535 21.80537033081055 13.55523014068604 22.29999923706055 12.77919960021973 22.29999923706055 L 11.22080039978027 22.29999923706055 C 10.44474983215332 22.29999923706055 9.758489608764648 21.80536079406738 9.513119697570801 21.06916046142578 L 9.080671310424805 19.77179718017578 C 8.227042198181152 19.45125579833984 7.438024520874023 18.99512672424316 6.731325149536133 18.41363143920898 L 5.389270782470703 18.68831062316895 C 5.270479202270508 18.71261024475098 5.148979187011719 18.72492980957031 5.028129577636719 18.72492980957031 C 4.387289047241211 18.72492980957031 3.790079116821289 18.38002014160156 3.469560623168945 17.82479095458984 L 2.690330505371094 16.47521018981934 C 2.302310943603516 15.80309009552002 2.387540817260742 14.96146965026855 2.902420043945312 14.38094043731689 L 3.81049919128418 13.35681343078613 C 3.73713493347168 12.9106273651123 3.700000762939453 12.45494651794434 3.700000762939453 12 C 3.700000762939453 11.54505348205566 3.73713493347168 11.08937644958496 3.81049919128418 10.64318943023682 L 2.902399063110352 9.61909008026123 C 2.387550354003906 9.038479804992676 2.30232048034668 8.196869850158691 2.690319061279297 7.524839401245117 L 3.469560623168945 6.175159454345703 C 3.79010009765625 5.619960784912109 4.387289047241211 5.275060653686523 5.028079986572266 5.275060653686523 C 5.148910522460938 5.275060653686523 5.270429611206055 5.287389755249023 5.389249801635742 5.311700820922852 L 6.731325149536133 5.586336135864258 C 7.438089370727539 5.004850387573242 8.227108001708984 4.548713684082031 9.080670356750488 4.228157043457031 L 9.513119697570801 2.930789947509766 C 9.758520126342773 2.194620132446289 10.44478034973145 1.700000762939453 11.22080039978027 1.700000762939453 Z M 17.04352951049805 7.248989105224609 C 16.84399032592773 7.248989105224609 16.65285110473633 7.175069808959961 16.50531959533691 7.040859222412109 C 15.78820991516113 6.38892936706543 14.9591703414917 5.909660339355469 14.04131031036377 5.616430282592773 C 13.79901027679443 5.539009094238281 13.60630989074707 5.348730087280273 13.52581977844238 5.107419967651367 L 12.96899032592773 3.436750411987305 C 12.9417200088501 3.35498046875 12.86544036865234 3.299999237060547 12.77919960021973 3.299999237060547 L 11.22080039978027 3.299999237060547 C 11.13455963134766 3.299999237060547 11.0582799911499 3.35498046875 11.03098964691162 3.436809539794922 L 10.47420978546143 5.107349395751953 C 10.39369010925293 5.348739624023438 10.20096969604492 5.539020538330078 9.958669662475586 5.616430282592773 C 9.040860176086426 5.909639358520508 8.21183967590332 6.388910293579102 7.494619369506836 7.040929794311523 C 7.347070693969727 7.175090789794922 7.155939102172852 7.248989105224609 6.956470489501953 7.248989105224609 C 6.902769088745117 7.248989105224609 6.84882926940918 7.2435302734375 6.796150207519531 7.232759475708008 L 5.068500518798828 6.879219055175781 C 4.984928131103516 6.862091064453125 4.897544860839844 6.901811599731445 4.855199813842773 6.975160598754883 L 4.075960159301758 8.32483959197998 C 4.032840728759766 8.399510383605957 4.042320251464844 8.493029594421387 4.099519729614258 8.557539939880371 L 5.268239974975586 9.87555980682373 C 5.436759948730469 10.06554985046387 5.50531005859375 10.32721042633057 5.451580047607422 10.57546043395996 C 5.35099983215332 11.04026985168457 5.299999237060547 11.51955986022949 5.299999237060547 12 C 5.299999237060547 12.48044013977051 5.35099983215332 12.95973014831543 5.451580047607422 13.42455005645752 C 5.50531005859375 13.67278957366943 5.436759948730469 13.93445014953613 5.268209457397461 14.12446975708008 L 4.099519729614258 15.44244003295898 C 4.042289733886719 15.50697040557861 4.032829284667969 15.60050010681152 4.075960159301758 15.67520999908447 L 4.855190277099609 17.02478981018066 C 4.897542953491211 17.09814834594727 4.984804153442383 17.13786315917969 5.06859016418457 17.12076950073242 L 6.796100616455078 16.76729011535645 C 6.84882926940918 16.75650024414062 6.902809143066406 16.75102996826172 6.956550598144531 16.75102996826172 C 7.155950546264648 16.75102996826172 7.347030639648438 16.82488059997559 7.494590759277344 16.9589900970459 C 8.21183967590332 17.61112022399902 9.040849685668945 18.09038925170898 9.958640098571777 18.38352012634277 C 10.20100975036621 18.46100044250488 10.39369964599609 18.65129089355469 10.47418975830078 18.89258003234863 L 11.03100967407227 20.56324005126953 C 11.0582799911499 20.64501953125 11.13455963134766 20.70000076293945 11.22080039978027 20.70000076293945 L 12.77919960021973 20.70000076293945 C 12.86544036865234 20.70000076293945 12.9417200088501 20.64501953125 12.96901035308838 20.56319046020508 L 13.52579021453857 18.89263916015625 C 13.60628986358643 18.65130043029785 13.79897022247314 18.46100997924805 14.04123973846436 18.3835506439209 C 14.95917987823486 18.09037017822266 15.78820991516113 17.61111068725586 16.50538063049316 16.95903015136719 C 16.65287017822266 16.82492065429688 16.84395980834961 16.75104904174805 17.04343032836914 16.75102996826172 C 17.0971794128418 16.75102996826172 17.15116882324219 16.75650024414062 17.20391082763672 16.76728057861328 L 18.93153953552246 17.12079048156738 C 19.01471900939941 17.1378173828125 19.10244750976562 17.09815979003906 19.14477920532227 17.02482032775879 L 19.92399024963379 15.67520046234131 C 19.96715927124023 15.60048007965088 19.95768928527832 15.50699043273926 19.90045928955078 15.44246959686279 L 18.73173904418945 14.12444019317627 C 18.56320953369141 13.9343900680542 18.49467086791992 13.67273998260498 18.54838943481445 13.42453956604004 C 18.64899063110352 12.9598503112793 18.70000076293945 12.48056983947754 18.70000076293945 12 C 18.70000076293945 11.51943016052246 18.64899063110352 11.0401496887207 18.54838943481445 10.57548046112061 C 18.49467086791992 10.32726001739502 18.56320953369141 10.0656099319458 18.73173904418945 9.87555980682373 L 19.90043067932129 8.557539939880371 C 19.95767021179199 8.493009567260742 19.96714973449707 8.399530410766602 19.92404937744141 8.324939727783203 L 19.14479064941406 6.975149154663086 C 19.10245513916016 6.901828765869141 19.01498222351074 6.862119674682617 18.93157958984375 6.879209518432617 L 17.20393943786621 7.232749938964844 C 17.15118980407715 7.2435302734375 17.09724998474121 7.248989105224609 17.04352951049805 7.248989105224609 Z M 12 7.700000762939453 C 14.3710298538208 7.700000762939453 16.29999923706055 9.628970146179199 16.29999923706055 12 C 16.29999923706055 14.3710298538208 14.3710298538208 16.29999923706055 12 16.29999923706055 C 9.628970146179199 16.29999923706055 7.700000762939453 14.3710298538208 7.700000762939453 12 C 7.700000762939453 9.628970146179199 9.628970146179199 7.700000762939453 12 7.700000762939453 Z M 12 14.69999980926514 C 13.48878955841064 14.69999980926514 14.69999980926514 13.48878955841064 14.69999980926514 12 C 14.69999980926514 10.51121044158936 13.48878955841064 9.300000190734863 12 9.300000190734863 C 10.51121044158936 9.300000190734863 9.300000190734863 10.51121044158936 9.300000190734863 12 C 9.300000190734863 13.48878955841064 10.51121044158936 14.69999980926514 12 14.69999980926514 Z" stroke="none" fill="#4e2f88"/>
  </g>
</svg>
