<svg width="18" height="18" viewBox="0 0 18 18" fill="none" xmlns="http://www.w3.org/2000/svg">
    <path d="M10.989 7.989a.562.562 0 1 0-.796-.796L9 8.386 7.807 7.193a.563.563 0 0 0-.796.796l1.193 1.193-1.193 1.193a.563.563 0 0 0 .796.796L9 9.977l1.193 1.194a.562.562 0 1 0 .796-.796L9.795 9.182l1.194-1.193z" fill="#C45A54"/>
    <path fill-rule="evenodd" clip-rule="evenodd" d="M9 .938a8.062 8.062 0 1 0 0 16.124A8.062 8.062 0 0 0 9 .937zM2.062 9a6.937 6.937 0 1 1 13.875 0A6.937 6.937 0 0 1 2.063 9z" fill="#C45A54"/>
</svg>
