<svg width="24" height="25" viewBox="0 0 24 25" fill="none" xmlns="http://www.w3.org/2000/svg">
    <path
        d="M5 6.25C5 5.97373 5.10536 5.70878 5.29289 5.51343C5.48043 5.31808 5.73478 5.20833 6 5.20833H8C8.26522 5.20833 8.51957 5.09859 8.70711 4.90324C8.89464 4.70789 9 4.44293 9 4.16667C9 3.8904 8.89464 3.62545 8.70711 3.4301C8.51957 3.23475 8.26522 3.125 8 3.125H6C5.20435 3.125 4.44129 3.45424 3.87868 4.04029C3.31607 4.62634 3 5.4212 3 6.25V8.33333C3 8.6096 3.10536 8.87455 3.29289 9.0699C3.48043 9.26525 3.73478 9.375 4 9.375C4.26522 9.375 4.51957 9.26525 4.70711 9.0699C4.89464 8.87455 5 8.6096 5 8.33333V6.25Z"
        fill="black" />
    <path
        d="M5 18.75C5 19.0263 5.10536 19.2912 5.29289 19.4866C5.48043 19.6819 5.73478 19.7917 6 19.7917H8C8.26522 19.7917 8.51957 19.9014 8.70711 20.0968C8.89464 20.2921 9 20.5571 9 20.8333C9 21.1096 8.89464 21.3746 8.70711 21.5699C8.51957 21.7653 8.26522 21.875 8 21.875H6C5.20435 21.875 4.44129 21.5458 3.87868 20.9597C3.31607 20.3737 3 19.5788 3 18.75V16.6667C3 16.3904 3.10536 16.1254 3.29289 15.9301C3.48043 15.7347 3.73478 15.625 4 15.625C4.26522 15.625 4.51957 15.7347 4.70711 15.9301C4.89464 16.1254 5 16.3904 5 16.6667V18.75Z"
        fill="black" />
    <path
        d="M18 5.20833C18.2652 5.20833 18.5196 5.31808 18.7071 5.51343C18.8946 5.70878 19 5.97373 19 6.25V8.33333C19 8.6096 19.1054 8.87455 19.2929 9.0699C19.4804 9.26525 19.7348 9.375 20 9.375C20.2652 9.375 20.5196 9.26525 20.7071 9.0699C20.8946 8.87455 21 8.6096 21 8.33333V6.25C21 5.4212 20.6839 4.62634 20.1213 4.04029C19.5587 3.45424 18.7956 3.125 18 3.125H16C15.7348 3.125 15.4804 3.23475 15.2929 3.4301C15.1054 3.62545 15 3.8904 15 4.16667C15 4.44293 15.1054 4.70789 15.2929 4.90324C15.4804 5.09859 15.7348 5.20833 16 5.20833H18Z"
        fill="black" />
    <path
        d="M19 18.75C19 19.0263 18.8946 19.2912 18.7071 19.4866C18.5196 19.6819 18.2652 19.7917 18 19.7917H16C15.7348 19.7917 15.4804 19.9014 15.2929 20.0968C15.1054 20.2921 15 20.5571 15 20.8333C15 21.1096 15.1054 21.3746 15.2929 21.5699C15.4804 21.7653 15.7348 21.875 16 21.875H18C18.7956 21.875 19.5587 21.5458 20.1213 20.9597C20.6839 20.3737 21 19.5788 21 18.75V16.6667C21 16.3904 20.8946 16.1254 20.7071 15.9301C20.5196 15.7347 20.2652 15.625 20 15.625C19.7348 15.625 19.4804 15.7347 19.2929 15.9301C19.1054 16.1254 19 16.3904 19 16.6667V18.75Z"
        fill="black" />
</svg>
