<svg width="24" height="24" viewBox="0 0 24 24" fill="none" xmlns="http://www.w3.org/2000/svg">
    <path clip-rule="evenodd" d="m20.806 7.624-.622-1.08a1.913 1.913 0 0 0-2.609-.705v0a1.904 1.904 0 0 1-2.608-.678 1.832 1.832 0 0 1-.257-.915v0a1.913 1.913 0 0 0-1.913-1.968h-1.254A1.904 1.904 0 0 0 9.64 4.191v0a1.913 1.913 0 0 1-1.913 1.886 1.83 1.83 0 0 1-.915-.257v0a1.913 1.913 0 0 0-2.609.705l-.668 1.099a1.913 1.913 0 0 0 .696 2.608v0a1.913 1.913 0 0 1 0 3.314v0a1.904 1.904 0 0 0-.696 2.6v0l.632 1.089a1.913 1.913 0 0 0 2.608.741v0a1.895 1.895 0 0 1 2.6.696c.164.277.253.593.256.915v0c0 1.056.857 1.913 1.913 1.913h1.254c1.053 0 1.908-.85 1.913-1.904v0a1.904 1.904 0 0 1 1.913-1.913c.322.009.636.097.916.256v0a1.913 1.913 0 0 0 2.608-.695v0l.66-1.099a1.904 1.904 0 0 0-.696-2.608v0a1.903 1.903 0 0 1-.696-2.609c.166-.29.406-.53.696-.696v0a1.913 1.913 0 0 0 .695-2.6v0-.008z" stroke="#130F26" stroke-width="1.5" stroke-linecap="round" stroke-linejoin="round"/>
    <circle cx="12.175" cy="11.889" r="2.636" stroke="#130F26" stroke-width="1.5" stroke-linecap="round" stroke-linejoin="round"/>
</svg>
