<svg width="18" height="18" viewBox="0 0 18 18" fill="none" xmlns="http://www.w3.org/2000/svg">
    <path d="M13.17 7.125a.562.562 0 1 0-.84-.75L9.805 9.197c-.512.572-.857.955-1.152 1.203-.28.236-.445.287-.59.287-.144 0-.309-.051-.59-.287-.294-.248-.639-.63-1.151-1.203l-.652-.728a.562.562 0 1 0-.838.75l.68.76c.477.532.874.977 1.238 1.282.384.323.799.552 1.314.552.514 0 .929-.229 1.313-.552.364-.305.761-.75 1.238-1.282l2.555-2.854z" fill="#54C466"/>
    <path fill-rule="evenodd" clip-rule="evenodd" d="M9 .938a8.062 8.062 0 1 0 0 16.124A8.062 8.062 0 0 0 9 .937zM2.062 9a6.937 6.937 0 1 1 13.875 0A6.937 6.937 0 0 1 2.063 9z" fill="#54C466"/>
</svg>
