<svg width="24" height="25" viewBox="0 0 24 25" fill="none" xmlns="http://www.w3.org/2000/svg">
    <path clip-rule="evenodd" d="m14.533 9.862-6.82 7.103c-.176-.106-.344-.174-.494-.184-1.296-.097-1.8.058-2.51-.573-.764-.68-.708-2.498-.708-3.83 0-1.33-.056-3.148.709-3.828.709-.632 1.213-.467 2.51-.574 1.296-.107 4.039-4.227 6.156-2.925.859.729 1.092 2.09 1.157 4.81z" stroke="#130F26" stroke-width="1.5" stroke-linecap="round" stroke-linejoin="round"/>
    <path d="M14.533 14.497c-.037 2.993-.261 4.451-1.157 5.209-.98.602-2.09.049-3.134-.739M4.001 20.833l3.713-3.867 6.82-7.104L20 4.167" stroke="#130F26" stroke-width="1.5" stroke-linecap="round" stroke-linejoin="round"/>
</svg>
